<?xml version="1.0" encoding="utf-8"?>
<!-- Generator: Adobe Illustrator 24.2.3, SVG Export Plug-In . SVG Version: 6.00 Build 0)  -->
<svg version="1.1" id="Layer_1" xmlns="http://www.w3.org/2000/svg" xmlns:xlink="http://www.w3.org/1999/xlink" x="0px" y="0px"
	 viewBox="0 0 252.41 111.02" style="enable-background:new 0 0 252.41 111.02;" xml:space="preserve">
<style type="text/css">
	.st0{display:none;fill:#1A2D4D;}
	.st1{fill:#00AAE1;}
	.st2{fill:#252F36;}
</style>
<rect x="-77.89" y="-301.06" class="st0" width="403" height="680.23"/>
<g>
	<path class="st1" d="M40.32,86.55h-5.43c-0.64,0-1.1-0.58-1.1-1.21V64.59c0-3.93-1.39-4.68-4.04-4.68h-1.39
		c-3.35,0-3.81,1.85-3.81,4.68v20.74c0,0.63-0.46,1.21-1.1,1.21h-5.49c-0.64,0-1.1-0.58-1.1-1.21V64.59c0-2.83-0.46-4.68-3.81-4.68
		h-1.39c-2.66,0-4.04,0.75-4.04,4.68v20.74c0,0.63-0.46,1.21-1.1,1.21H1.1c-0.64,0-1.1-0.58-1.1-1.21V64.59
		c0-7.28,4.33-11.03,11.67-11.03h1.39c3.23,0,5.83,0.75,7.63,2.31c1.79-1.56,4.45-2.31,7.68-2.31h1.39
		c7.34,0,11.67,3.75,11.67,11.03v20.74C41.42,85.97,40.96,86.55,40.32,86.55z"/>
	<path class="st1" d="M62.91,98.1c-4.85,0-8.67-0.69-10.8-1.39c-0.81-0.23-1.16-0.58-1.16-1.39v-3.06c0-0.58,0.46-0.98,1.1-0.98
		c0,0,0.06,0,0.12,0c2.6,0.23,8.09,0.69,10.75,0.69c4.68,0,5.37-1.16,5.37-5.14v-0.46c-1.21,0.23-4.16,0.63-5.55,0.63
		c-9.3,0-13.81-5.49-13.81-14.5V55.12c0-0.63,0.52-1.16,1.16-1.16h5.31c0.64,0,1.16,0.52,1.16,1.16v17.39
		c0,4.74,1.21,8.26,6.18,8.26c1.39,0,3.93-0.23,5.55-0.46V55.12c0-0.63,0.52-1.16,1.16-1.16h5.31c0.64,0,1.16,0.52,1.16,1.16v31.31
		C75.91,94.63,71.75,98.1,62.91,98.1z"/>
	<path class="st2" d="M97.16,70.54c-1.5,0-3.81-0.17-5.14-0.23v15.08c0,0.64-0.46,1.16-1.1,1.16h-5.78c-0.64,0-1.16-0.52-1.16-1.16
		V45.65c0-1.16,0.69-1.56,1.85-1.73c3-0.46,7.11-0.75,11.32-0.75c8.9,0,16.64,3.12,16.64,13.34v0.52
		C113.8,67.25,106.06,70.54,97.16,70.54z M105.83,56.51c0-4.85-2.89-6.7-8.67-6.7c-1.21,0-4.1,0.12-5.14,0.23v13.75
		c0.92,0.06,4.16,0.17,5.14,0.17c6.24,0,8.67-2.31,8.67-6.93V56.51z"/>
	<path class="st2" d="M126.4,86.55h-5.37c-0.64,0-1.16-0.58-1.16-1.21V43.74c0-0.63,0.52-1.16,1.16-1.16h5.37
		c0.63,0,1.1,0.52,1.1,1.16v41.59C127.49,85.97,127.03,86.55,126.4,86.55z"/>
	<path class="st2" d="M159.55,85.51c-3.58,0.92-7.92,1.5-11.61,1.5c-9.3,0-13.81-5.49-13.81-14.5v-4.45c0-9.01,4.51-14.5,13.81-14.5
		c3.7,0,8.03,0.58,11.61,1.5c1.33,0.35,1.56,0.69,1.56,1.56v27.33C161.11,84.81,160.88,85.16,159.55,85.51z M153.49,60.2
		c-1.1-0.23-3.47-0.4-5.55-0.4c-4.97,0-6.18,3.52-6.18,8.26v4.45c0,4.74,1.21,8.26,6.18,8.26c2.08,0,4.45-0.17,5.55-0.4V60.2z"/>
	<path class="st2" d="M193.93,86.55h-5.43c-0.64,0-1.1-0.58-1.1-1.21V65.34c0-2.83-0.58-5.43-3.93-5.43h-3.58
		c-3.35,0-3.93,2.6-3.93,5.43v19.99c0,0.63-0.46,1.21-1.1,1.21h-5.43c-0.63,0-1.1-0.58-1.1-1.21V65.34
		c0-6.99,4.04-11.79,11.55-11.79h3.58c7.51,0,11.55,4.79,11.55,11.79v19.99C195.02,85.97,194.56,86.55,193.93,86.55z"/>
</g>
<g>
	<g>
		<path class="st2" d="M97.79,21.78c2.47-6.42,6.98-12.17,12.85-16.11c1.48-0.97,3.04-1.83,4.66-2.54c1.63-0.7,3.33-1.26,5.05-1.69
			c3.47-0.81,7.06-1,10.59-0.74c3.51,0.32,7,1.04,10.33,2.28c1.66,0.63,3.27,1.38,4.8,2.29c1.55,0.87,3,1.91,4.33,3.08
			c2.71,2.29,4.94,5.09,6.65,8.14c1.68,3.06,2.92,6.37,3.38,9.79c-0.99-3.29-2.5-6.38-4.4-9.16c-1.88-2.79-4.19-5.26-6.83-7.28
			c-5.28-4.07-11.82-6.15-18.46-6.68c-3.31-0.29-6.64-0.11-9.87,0.56c-1.61,0.35-3.2,0.81-4.74,1.41c-1.53,0.63-3.03,1.34-4.47,2.17
			C105.94,10.71,101.17,15.81,97.79,21.78z"/>
	</g>
	<g>
		<path class="st2" d="M152.61,11.69c4.42-4.45,9.8-7.88,15.78-9.95c5.95-2.09,12.66-2.36,18.76-0.44c0.77,0.21,1.51,0.52,2.26,0.79
			c0.74,0.29,1.44,0.67,2.15,1c0.7,0.36,1.45,0.65,2.12,1.07l2.03,1.24c2.62,1.78,5.13,3.8,7.07,6.34
			c3.94,4.99,6.28,11.22,6.18,17.58l-1-0.03c-0.18-2.96-0.91-5.95-2.06-8.71c-1.11-2.78-2.68-5.36-4.61-7.62
			c-1.88-2.31-4.22-4.2-6.71-5.83l-1.92-1.15c-0.63-0.39-1.35-0.65-2.01-0.98c-1.35-0.65-2.72-1.24-4.14-1.67
			c-2.82-0.9-5.79-1.36-8.76-1.29c-1.49,0.01-2.97,0.16-4.44,0.42c-1.47,0.24-2.93,0.59-4.36,1.03c-2.87,0.87-5.62,2.15-8.25,3.65
			c-2.62,1.5-5.13,3.28-7.38,5.26L152.61,11.69z"/>
	</g>
	<g>
		<path class="st2" d="M201.9,109.44c6.88,1.36,14.05,1.06,20.58-1.21c0.84-0.2,1.62-0.57,2.42-0.88c0.79-0.34,1.61-0.61,2.37-1
			c1.51-0.82,3.07-1.53,4.46-2.54c2.92-1.79,5.46-4.12,7.77-6.61l1.65-1.95c0.54-0.66,0.99-1.38,1.49-2.07l0.73-1.04
			c0.25-0.35,0.43-0.73,0.65-1.1l1.26-2.21l1.05-2.32c0.17-0.39,0.36-0.77,0.51-1.16l0.41-1.2c0.26-0.81,0.56-1.6,0.79-2.41
			l0.59-2.47c0.23-0.81,0.32-1.66,0.44-2.5c0.1-0.84,0.28-1.67,0.31-2.51c0.05-1.69,0.2-3.38,0.02-5.06
			c-0.11-3.38-0.9-6.7-1.84-9.94c-0.62-1.57-1.09-3.2-1.92-4.69c-0.39-0.75-0.72-1.53-1.15-2.26l-1.34-2.15
			c-1.89-2.79-4.06-5.43-6.63-7.64c-1.22-1.19-2.64-2.12-3.99-3.14c-0.7-0.48-1.45-0.88-2.17-1.33l-1.09-0.65
			c-0.37-0.21-0.76-0.37-1.14-0.56l-2.3-1.1l-2.39-0.88c-0.4-0.14-0.79-0.31-1.2-0.43l-1.24-0.32c-0.83-0.2-1.64-0.46-2.48-0.62
			c-6.69-1.26-13.75-0.96-20.3,1.28c-6.57,2.14-12.52,6.16-17.21,11.38c4.21-5.64,10.1-10.05,16.74-12.69
			c6.65-2.64,14.06-3.32,21.19-2.18c7.1,1.27,13.94,4.37,19.41,9.17c5.6,4.66,9.65,11.02,12.03,17.89c1.06,3.47,1.87,7.06,1.97,10.7
			c0.18,1.82,0.01,3.64-0.06,5.45c-0.04,0.91-0.24,1.8-0.35,2.71c-0.13,0.9-0.24,1.81-0.49,2.68l-0.66,2.65
			c-0.26,0.87-0.6,1.71-0.9,2.57l-0.46,1.28c-0.18,0.42-0.38,0.82-0.57,1.23l-1.17,2.46l-1.4,2.34c-0.24,0.38-0.45,0.79-0.72,1.15
			l-0.8,1.1c-0.55,0.72-1.04,1.48-1.64,2.16l-1.82,2.01c-2.54,2.57-5.32,4.92-8.45,6.7c-1.51,0.99-3.19,1.66-4.8,2.44
			c-0.82,0.37-1.69,0.61-2.53,0.93c-0.85,0.29-1.68,0.62-2.56,0.8c-3.46,0.93-7.02,1.39-10.57,1.33c-1.77-0.02-3.54-0.15-5.29-0.41
			C205.31,110.33,203.59,109.94,201.9,109.44z"/>
	</g>
	<g>
		<path class="st2" d="M81.43,57.45c-3.32-3.8-5.23-8.99-5.15-14.22c-0.09-5.26,1.89-10.5,5.18-14.63
			c3.38-4.06,8.08-7.09,13.25-8.09c2.56-0.53,5.2-0.65,7.76-0.29c2.55,0.38,5.03,1.17,7.22,2.42c-4.83-1.45-9.88-1.47-14.48-0.11
			c-1.16,0.31-2.25,0.79-3.35,1.24l-1.59,0.82c-0.52,0.28-1,0.63-1.51,0.95c-1.97,1.31-3.75,2.91-5.24,4.74
			c-1.52,1.82-2.68,3.91-3.57,6.1c-0.48,1.09-0.77,2.24-1.09,3.39l-0.32,1.76c-0.13,0.59-0.13,1.19-0.2,1.78
			C77.9,48.1,79.03,53.03,81.43,57.45z"/>
	</g>
</g>
<g>
	<g>
		<path class="st2" d="M93.65,108.12c-0.33,0.09-1.8,0.35-3.51,0.35c-2.66,0-6.28-1.31-6.28-6.79v-3.26c0-5.57,3.62-6.79,6.28-6.79
			c1.71,0,3.17,0.27,3.51,0.36c0.29,0.09,0.49,0.2,0.49,0.51v1.49c0,0.27-0.11,0.47-0.44,0.47c0,0-0.02,0-0.04,0
			c-0.78-0.07-2.29-0.18-3.46-0.18c-1.86,0-3.22,1-3.22,4.15v3.26c0,3.09,1.35,4.15,3.22,4.15c1.18,0,2.69-0.11,3.46-0.18
			c0.02,0,0.04,0,0.04,0c0.33,0,0.44,0.2,0.44,0.47v1.49C94.14,107.92,93.94,108.03,93.65,108.12z"/>
		<path class="st2" d="M116.81,108.16c-0.67,0.16-2.6,0.31-3.77,0.31c-2.89,0-5.13-0.78-5.13-4.55V92.25c0-0.24,0.2-0.44,0.44-0.44
			h2.2c0.24,0,0.44,0.2,0.44,0.44v11.68c0,1.46,0.44,1.91,1.73,1.91h4.09c0.24,0,0.44,0.2,0.44,0.44v1.42
			C117.26,108.01,117.14,108.1,116.81,108.16z"/>
		<path class="st2" d="M136.35,108.47c-3.66,0-6.33-2.04-6.33-6.93v-3c0-4.88,2.66-6.93,6.33-6.93c3.66,0,6.33,2.04,6.33,6.93v3
			C142.68,106.43,140.01,108.47,136.35,108.47z M139.57,98.55c0-2.93-1.04-4.24-3.22-4.24c-2.17,0-3.22,1.31-3.22,4.24v3
			c0,2.93,1.04,4.24,3.22,4.24c2.18,0,3.22-1.31,3.22-4.24V98.55z"/>
		<path class="st2" d="M167.55,108.1c-0.78,0.11-3.57,0.38-4.93,0.38c-3.57,0-6.06-1.51-6.06-6.24V92.22c0-0.24,0.2-0.42,0.44-0.42
			h2.2c0.24,0,0.44,0.18,0.44,0.42v10.01c0,2.53,0.58,3.68,2.97,3.68c0.89,0,2.24-0.09,3.06-0.18V92.22c0-0.24,0.18-0.42,0.42-0.42
			h2.2c0.24,0,0.44,0.18,0.44,0.42v14.52C168.75,107.67,168.35,107.99,167.55,108.1z"/>
		<path class="st2" d="M188.13,108.47c-1.58,0-3.71-0.15-4.37-0.27c-0.38-0.07-0.58-0.24-0.58-0.69V92.58c0-0.44,0.2-0.62,0.58-0.69
			c0.67-0.11,2.8-0.27,4.37-0.27c4.44,0,6.97,2.4,6.97,6.79v3.26C195.1,106.08,192.57,108.47,188.13,108.47z M192.04,98.42
			c0-3.33-1.69-4.2-3.91-4.2c-0.82,0-1.4,0.04-1.86,0.07v11.52c0.47,0.02,1.04,0.07,1.86,0.07c2.22,0,3.91-0.87,3.91-4.2V98.42z"/>
	</g>
</g>
</svg>
